<svg viewBox="-20 -77 650.66605 650" xmlns="http://www.w3.org/2000/svg">
    <path d="m408.96875 138.765625h.136719l97.234375-1.457031c4.824218-.070313 8.671875-4.039063 8.601562-8.863282-.070312-4.820312-4.042968-8.675781-8.859375-8.601562l-97.234375 1.457031c-4.824218.035157-8.707031 3.972657-8.675781 8.796875.039063 4.820313 3.976563 8.703125 8.796875 8.667969zm0 0"/>
    <path d="m456.074219 179.003906h-.132813l-46.226562.691406c-4.824219.035157-8.707032 3.972657-8.675782 8.792969.035157 4.824219 3.976563 8.707031 8.796876 8.671875h.136718l46.226563-.691406c4.820312-.03125 8.703125-3.972656 8.671875-8.796875-.035156-4.824219-3.972656-8.703125-8.796875-8.667969zm0 0"/>
    <path d="m15.160156 473.339844c.390625.382812.816406.726562 1.273438 1.023437 11.023437 11.503907 26.269531 18 42.199218 17.996094h349.335938c15.914062.003906 31.140625-6.476563 42.164062-17.945313 1.238282-.8125 2.242188-1.929687 2.921876-3.246093 8.773437-10.507813 13.570312-23.761719 13.554687-37.449219v-133.046875c15.042969-.871094 29.871094-3.988281 43.992187-9.230469l81.222657 12.957032c3.160156.503906 6.34375-.757813 8.292969-3.296876 1.953124-2.535156 2.363281-5.9375 1.066406-8.863281l-22.585938-50.972656c39.84375-51.96875 41.960938-123.605469 5.265625-177.84375-36.699219-54.238281-103.984375-78.917969-167.046875-61.265625s-107.757812 73.671875-110.964844 139.082031h-247.21875c-29.464843.042969-54.335937 21.921875-58.136718 51.140625-.4609378 1.332032-.597656 2.753906-.394532 4.148438-.0624995 1.113281-.101562 2.226562-.101562 3.347656v233.84375c-.015625 13.675781 4.777344 26.921875 13.535156 37.429688.421875.8125.972656 1.554687 1.625 2.191406zm43.472656 1.550781c-8.90625.011719-17.582031-2.890625-24.699218-8.253906l105.363281-107.765625c2.210937-2.222656 3.058594-5.464844 2.222656-8.488282-.839843-3.027343-3.230469-5.367187-6.277343-6.136718-3.042969-.769532-6.261719.152344-8.4375 2.417968l-104.335938 106.714844c-3.292969-6.027344-5.011719-12.792968-5.007812-19.660156v-219.621094l181.234374 153.457032c19.996094 17.023437 49.386719 17.015624 69.371094-.023438l106.246094-90.117188c.246094-.203124.480469-.421874.699219-.65625l.179687-.191406c22.117188 14.371094 47.613282 22.6875 73.949219 24.113282v133.039062c.011719 6.898438-1.722656 13.675781-5.039063 19.722656l-104.964843-106.796875c-2.175781-2.265625-5.40625-3.1875-8.449219-2.414062-3.046875.777343-5.441406 3.128906-6.269531 6.160156-.828125 3.035156.035156 6.277344 2.265625 8.496094l105.9375 107.796875c-7.105469 5.335937-15.757813 8.222656-24.652344 8.210937zm302.550782-420.015625c50.292968-52.128906 132.800781-55.15625 186.765625-6.84375 53.964843 48.304688 60.0625 130.644531 13.796875 186.375-2.105469 2.554688-2.59375 6.078125-1.246094 9.101562l18.210938 41.113282-67.648438-10.792969c-1.527344-.242187-3.089844-.078125-4.535156.480469-42.332032 16.46875-90.117188 10.460937-127.050782-15.972656-.207031-.167969-.414062-.324219-.628906-.464844-5.226562-3.796875-10.171875-7.960938-14.808594-12.460938-53.402343-51.824218-54.679687-137.132812-2.855468-190.535156zm-302.550782 103.828125h247.359376c2.371093 37.648437 18.738281 73.046875 45.878906 99.242187 2.890625 2.800782 5.871094 5.476563 8.9375 8.019532l-104.039063 88.242187c-13.476562 11.492188-33.300781 11.5-46.789062.019531l-191.730469-162.347656c3.84375-19.265625 20.742188-33.144531 40.382812-33.175781zm0 0"/>
</svg>