<svg id="svg" version="1.1" xmlns="http://www.w3.org/2000/svg" xmlns:xlink="http://www.w3.org/1999/xlink" width="400" height="87.95811518324608" viewBox="0, 0, 400,87.95811518324608"><g id="svgg"><path id="path0" d="M295.600 3.216 C 295.906 3.721,293.242 4.276,292.515 3.859 C 292.168 3.660,292.064 3.694,292.282 3.935 C 292.501 4.176,291.912 4.660,290.973 5.011 C 285.213 7.166,283.492 7.947,280.527 9.755 C 278.711 10.862,277.066 11.718,276.872 11.656 C 275.518 11.228,265.814 19.915,266.679 20.780 C 267.732 21.833,270.301 21.834,271.233 20.783 C 271.793 20.151,272.566 19.280,272.950 18.848 C 274.580 17.017,278.737 13.870,279.596 13.817 C 280.522 13.761,284.293 11.652,284.293 11.192 C 284.293 11.059,283.174 11.571,281.806 12.329 C 280.438 13.088,279.791 13.313,280.366 12.830 C 284.850 9.068,297.896 4.230,301.027 5.168 C 306.829 6.906,305.814 12.711,298.340 20.533 C 294.155 24.913,292.634 26.224,287.435 29.928 C 286.139 30.851,284.934 31.819,284.758 32.078 C 284.582 32.338,284.288 32.530,284.104 32.505 C 282.701 32.318,281.696 32.556,281.806 33.050 C 281.878 33.374,281.662 33.740,281.325 33.865 C 280.978 33.992,280.771 33.692,280.847 33.173 C 280.921 32.669,281.255 32.164,281.590 32.053 C 281.925 31.941,282.199 31.608,282.199 31.312 C 282.199 31.017,282.945 29.623,283.858 28.215 C 285.533 25.629,286.373 24.772,285.340 26.702 C 284.388 28.481,285.254 27.859,286.908 25.576 C 288.725 23.067,288.764 22.870,287.659 21.765 C 286.513 20.619,284.534 20.698,284.444 21.892 C 284.372 22.852,282.299 26.702,281.855 26.702 C 281.722 26.702,281.763 26.407,281.945 26.047 C 282.127 25.687,281.913 25.840,281.469 26.386 C 281.025 26.932,280.782 27.573,280.928 27.810 C 281.667 29.006,276.380 35.391,272.742 37.696 C 270.697 38.992,268.552 40.814,267.975 41.744 L 266.925 43.437 268.279 44.054 C 270.002 44.839,269.980 45.160,268.063 47.120 C 267.199 48.004,266.490 48.896,266.486 49.102 C 266.483 49.308,265.307 50.772,263.873 52.356 C 262.438 53.940,261.416 54.764,261.602 54.188 C 261.811 53.538,261.222 53.936,260.049 55.236 C 257.795 57.732,257.627 59.003,259.458 59.699 C 261.363 60.423,261.780 60.341,261.780 59.243 C 261.780 58.712,262.246 57.856,262.815 57.341 C 263.384 56.826,263.699 56.160,263.514 55.862 C 263.313 55.536,263.507 55.445,264.001 55.635 C 264.492 55.823,265.211 55.494,265.789 54.817 C 266.625 53.835,266.631 53.778,265.838 54.393 C 264.527 55.407,264.702 54.285,266.040 53.092 C 266.655 52.543,268.678 50.031,270.535 47.509 C 273.714 43.192,279.586 37.837,280.512 38.410 C 280.736 38.548,281.502 38.188,282.214 37.610 C 282.925 37.032,283.213 36.710,282.853 36.896 C 281.914 37.382,282.047 36.901,283.085 36.059 C 283.687 35.571,283.845 35.550,283.577 35.995 C 283.361 36.355,283.405 36.649,283.675 36.649 C 284.438 36.649,285.376 35.293,284.943 34.816 C 284.730 34.580,284.844 34.553,285.197 34.756 C 285.550 34.959,286.493 34.746,287.291 34.283 C 288.090 33.820,288.331 33.567,287.827 33.720 C 286.196 34.216,286.857 33.544,288.799 32.733 C 289.838 32.299,290.934 32.097,291.236 32.283 C 291.545 32.474,291.630 32.373,291.432 32.052 C 290.877 31.153,295.535 30.649,297.369 31.408 C 300.491 32.701,301.987 38.862,300.316 43.543 C 298.668 48.157,292.967 53.819,283.246 60.498 C 280.798 62.180,278.717 63.745,278.621 63.977 C 278.525 64.208,278.145 64.398,277.776 64.398 C 277.407 64.398,276.486 64.884,275.730 65.479 C 274.974 66.074,274.081 66.391,273.746 66.183 C 273.390 65.964,273.277 66.034,273.473 66.352 C 273.804 66.887,266.815 70.681,265.499 70.681 C 265.140 70.681,264.493 71.034,264.061 71.466 C 263.629 71.898,262.704 72.251,262.004 72.251 C 261.305 72.251,260.733 72.440,260.733 72.670 C 260.733 73.291,257.498 74.346,255.591 74.346 C 253.746 74.346,253.463 73.574,254.713 71.959 C 255.488 70.958,255.495 70.958,255.151 71.990 C 254.944 72.608,256.175 71.741,258.160 69.871 C 260.007 68.129,262.424 66.153,263.531 65.478 C 265.819 64.084,268.282 61.780,267.485 61.780 C 267.193 61.780,267.087 61.565,267.249 61.303 C 268.457 59.349,263.159 60.244,260.841 62.386 C 259.486 63.638,257.834 65.015,257.170 65.447 C 256.506 65.878,255.903 66.645,255.830 67.152 C 255.756 67.659,255.368 68.366,254.968 68.723 C 254.350 69.273,254.344 69.233,254.932 68.455 C 255.314 67.952,255.482 67.539,255.307 67.539 C 255.132 67.539,254.368 68.478,253.608 69.625 C 252.849 70.772,252.043 71.596,251.817 71.457 C 251.591 71.317,251.523 71.648,251.665 72.191 C 251.807 72.735,251.668 73.339,251.355 73.532 C 249.398 74.741,252.295 77.564,255.340 77.416 C 256.740 77.348,256.747 77.335,255.497 77.129 C 253.220 76.756,251.309 75.815,251.309 75.067 C 251.309 74.562,251.623 74.660,252.356 75.393 C 257.660 80.696,297.499 57.324,301.515 46.553 C 301.881 45.569,302.394 44.361,302.653 43.869 C 302.912 43.376,302.970 42.572,302.782 42.081 C 302.541 41.452,302.632 41.308,303.093 41.593 C 303.601 41.907,303.654 41.431,303.331 39.454 C 303.103 38.055,302.908 36.286,302.898 35.521 C 302.888 34.757,302.703 34.241,302.487 34.374 C 302.271 34.508,302.094 34.055,302.094 33.368 C 302.094 30.736,296.451 27.591,293.816 28.756 C 293.032 29.103,295.127 26.758,298.550 23.459 C 307.845 14.499,309.641 7.411,303.566 3.667 C 301.911 2.647,295.017 2.257,295.600 3.216 M150.785 6.009 C 149.777 6.404,149.285 6.745,149.692 6.766 C 150.098 6.788,148.096 7.967,145.242 9.385 C 136.795 13.582,129.961 18.234,126.066 22.442 C 116.086 33.221,124.219 39.780,142.008 35.300 C 156.485 31.655,161.754 35.148,155.497 44.242 C 154.056 46.335,152.084 48.307,153.141 46.597 C 153.430 46.130,153.361 46.037,152.925 46.307 C 152.573 46.525,152.407 47.021,152.556 47.410 C 152.822 48.103,148.751 52.149,146.073 53.854 C 145.353 54.312,144.573 54.992,144.340 55.365 C 144.106 55.738,143.694 55.906,143.423 55.739 C 143.153 55.572,142.932 55.664,142.932 55.943 C 142.932 56.461,136.287 61.038,134.667 61.635 C 134.173 61.817,132.885 62.517,131.803 63.190 C 129.502 64.623,125.102 66.320,122.557 66.755 C 121.574 66.924,120.536 67.205,120.251 67.381 C 119.966 67.557,119.868 67.484,120.032 67.218 C 120.202 66.942,119.447 66.819,118.275 66.931 C 113.030 67.431,112.003 64.801,115.445 59.686 C 116.453 58.188,117.277 56.846,117.277 56.704 C 117.277 56.561,117.764 55.762,118.358 54.928 C 119.289 53.620,119.313 53.459,118.533 53.758 C 117.919 53.994,117.751 53.908,118.008 53.492 C 118.216 53.155,118.151 52.880,117.863 52.880 C 117.575 52.880,117.194 53.115,117.016 53.403 C 116.838 53.691,116.133 53.927,115.450 53.927 C 112.541 53.927,108.730 64.285,110.453 67.505 C 111.891 70.191,116.686 70.676,123.263 68.800 C 126.318 67.928,127.258 67.873,126.178 68.629 C 125.023 69.437,127.652 68.662,129.319 67.702 C 130.156 67.221,130.251 67.074,129.581 67.294 C 129.005 67.484,128.181 67.751,127.749 67.888 C 127.317 68.024,128.730 67.219,130.890 66.099 C 163.252 49.320,171.046 25.841,141.872 33.021 C 130.250 35.881,124.136 34.822,124.100 29.943 C 124.090 28.586,124.290 27.814,124.601 28.007 C 124.886 28.183,124.993 27.999,124.839 27.597 C 124.058 25.563,133.202 17.999,142.095 13.323 C 151.008 8.637,152.990 8.122,159.293 8.855 C 159.509 8.880,159.686 9.165,159.686 9.488 C 159.686 9.896,159.486 9.911,159.031 9.538 C 158.525 9.122,158.365 9.576,158.325 11.550 C 158.294 13.039,158.480 13.973,158.770 13.793 C 159.043 13.624,158.999 13.986,158.673 14.597 C 157.954 15.939,157.500 16.061,157.946 14.791 C 158.123 14.287,157.417 14.845,156.376 16.032 C 155.336 17.218,153.711 18.579,152.766 19.056 C 148.610 21.154,147.380 21.989,148.437 21.998 C 149.300 22.004,149.343 22.092,148.691 22.513 C 148.044 22.931,148.094 23.022,148.979 23.029 C 149.569 23.033,150.301 23.285,150.605 23.589 C 152.442 25.426,161.798 17.331,160.418 15.098 C 160.203 14.749,160.278 14.640,160.597 14.838 C 161.770 15.562,162.304 9.811,161.248 7.837 C 160.299 6.064,153.623 4.898,150.785 6.009 M22.703 6.762 C -0.831 13.151,-1.912 38.457,20.397 60.733 C 23.137 63.469,25.332 65.855,25.275 66.037 C 25.219 66.219,25.693 66.808,26.330 67.346 L 27.487 68.325 26.490 67.147 C 25.941 66.499,25.728 65.969,26.016 65.969 C 26.711 65.969,28.354 67.807,27.987 68.174 C 27.829 68.332,28.830 69.283,30.211 70.288 C 34.142 73.147,44.459 78.688,43.768 77.569 C 43.612 77.316,41.933 76.368,40.037 75.463 C 38.142 74.557,36.719 73.609,36.876 73.355 C 37.033 73.100,35.810 71.880,34.157 70.642 C 29.211 66.937,21.922 59.222,18.413 53.976 L 15.119 49.051 17.900 46.233 L 20.681 43.416 20.829 49.195 L 20.977 54.974 23.839 54.974 L 26.702 54.974 26.702 46.410 L 26.702 37.846 34.701 30.240 L 42.701 22.633 56.927 35.990 L 71.153 49.347 69.655 52.291 C 64.749 61.937,54.178 72.972,41.972 81.186 C 37.212 84.389,37.509 84.421,43.621 81.366 C 79.865 63.248,94.052 22.312,68.559 9.414 C 62.358 6.276,49.520 4.746,45.087 6.617 C 43.540 7.269,46.611 9.417,49.114 9.433 C 63.925 9.529,75.945 22.182,74.655 36.320 C 74.151 41.840,74.153 41.840,68.698 36.743 L 63.837 32.199 63.855 27.880 L 63.874 23.560 61.288 23.560 C 58.721 23.560,58.701 23.574,58.539 25.362 L 58.377 27.164 52.094 21.169 C 42.204 11.731,43.002 11.765,33.718 20.393 C 27.092 26.550,26.960 26.640,26.799 25.115 C 26.640 23.602,26.559 23.560,23.789 23.560 L 20.942 23.560 20.942 27.965 L 20.942 32.370 16.667 36.342 C 11.473 41.167,11.755 41.157,10.978 36.549 C 7.846 17.979,26.519 4.072,46.345 10.209 C 46.916 10.385,46.231 9.907,44.823 9.145 C 38.819 5.896,29.564 4.899,22.703 6.762 M120.336 7.205 C 120.291 7.994,120.264 8.931,120.277 9.288 C 120.290 9.644,120.116 9.822,119.891 9.683 C 119.666 9.544,119.357 9.755,119.204 10.152 C 118.988 10.717,118.377 10.777,116.401 10.426 C 115.011 10.180,113.168 9.854,112.304 9.702 C 111.089 9.488,110.911 9.553,111.518 9.989 C 112.121 10.422,111.938 10.479,110.733 10.234 C 109.869 10.058,108.166 9.774,106.948 9.602 C 105.730 9.431,104.860 9.085,105.015 8.834 C 105.170 8.582,105.067 8.377,104.786 8.377 C 104.504 8.377,103.911 8.238,103.467 8.067 C 102.927 7.860,102.308 8.336,101.594 9.507 C 100.147 11.880,100.213 12.650,101.832 12.314 C 102.552 12.164,103.750 11.915,104.494 11.759 C 105.459 11.557,105.736 11.656,105.460 12.102 C 105.220 12.490,105.296 12.590,105.662 12.364 C 106.409 11.902,116.239 12.888,116.835 13.484 C 117.081 13.730,116.915 14.388,116.465 14.950 C 115.691 15.916,115.679 15.901,116.230 14.660 C 116.774 13.435,116.760 13.415,116.014 14.344 C 115.576 14.890,115.347 15.549,115.507 15.807 C 115.666 16.065,115.573 16.560,115.298 16.908 C 115.024 17.255,114.207 18.599,113.483 19.895 C 112.758 21.191,109.879 26.021,107.085 30.628 C 104.291 35.236,101.913 39.459,101.800 40.014 C 101.687 40.569,101.320 41.276,100.983 41.585 C 100.531 41.999,100.480 41.954,100.789 41.411 C 101.073 40.915,101.010 40.799,100.596 41.055 C 100.259 41.263,100.122 41.659,100.293 41.935 C 100.626 42.474,97.902 47.118,97.251 47.119 C 97.035 47.120,96.859 47.342,96.859 47.614 C 96.859 48.171,92.674 54.974,92.331 54.974 C 92.210 54.974,92.362 54.503,92.670 53.927 C 92.978 53.351,93.026 52.880,92.777 52.880 C 92.528 52.880,92.017 53.453,91.642 54.154 C 90.713 55.890,88.400 56.742,84.882 56.645 C 80.697 56.530,79.937 56.852,80.364 58.554 C 80.972 60.975,81.558 61.304,83.416 60.266 C 86.154 58.737,88.456 58.461,88.219 59.690 C 88.068 60.472,88.451 60.820,89.905 61.221 C 92.179 61.849,92.843 61.524,92.539 59.931 C 92.020 57.219,101.836 55.445,105.386 57.609 C 107.677 59.006,109.333 58.949,109.674 57.461 C 110.073 55.717,109.647 54.161,108.831 54.383 C 107.812 54.661,97.325 54.477,96.833 54.173 C 96.609 54.034,96.305 54.216,96.159 54.578 C 96.014 54.940,95.876 54.989,95.853 54.688 C 95.830 54.387,96.905 52.384,98.241 50.238 C 103.723 41.431,110.182 30.474,111.261 28.152 C 111.894 26.790,112.602 25.847,112.834 26.058 C 113.067 26.268,113.121 26.200,112.955 25.907 C 112.625 25.322,114.851 21.308,115.272 21.729 C 115.415 21.872,115.532 21.677,115.532 21.294 C 115.532 20.126,118.861 15.684,120.469 14.706 C 121.303 14.198,121.810 13.576,121.595 13.323 C 121.380 13.069,121.558 13.116,121.990 13.428 C 122.421 13.739,123.128 14.023,123.560 14.060 C 123.992 14.096,124.935 14.227,125.654 14.349 C 126.374 14.472,127.317 14.596,127.749 14.624 C 128.434 14.669,128.437 14.737,127.766 15.161 C 127.153 15.549,127.298 15.760,128.485 16.212 C 130.420 16.947,131.414 16.154,131.414 13.871 C 131.414 12.294,131.293 12.173,129.836 12.288 C 128.968 12.356,127.083 12.180,125.647 11.896 L 123.037 11.380 123.997 9.747 C 124.892 8.226,124.987 6.358,124.176 6.224 C 120.795 5.666,120.419 5.762,120.336 7.205 M153.403 6.283 C 151.613 6.856,150.237 6.856,151.571 6.283 C 152.147 6.035,153.089 5.840,153.665 5.848 C 154.507 5.861,154.455 5.946,153.403 6.283 M190.512 6.944 C 190.477 7.300,190.429 8.224,190.406 8.997 C 190.382 9.769,190.175 10.285,189.946 10.144 C 189.717 10.002,189.529 10.126,189.529 10.419 C 189.529 11.286,186.706 13.645,185.995 13.373 C 185.635 13.235,185.340 13.389,185.340 13.716 C 185.340 14.043,185.197 14.168,185.023 13.993 C 184.848 13.819,184.215 14.133,183.615 14.691 C 183.016 15.250,182.157 15.705,181.708 15.703 C 181.217 15.701,181.518 15.284,182.461 14.660 C 184.694 13.181,183.828 13.366,180.825 15.010 C 176.158 17.565,171.652 21.151,170.648 23.110 L 169.671 25.016 172.120 25.633 L 174.570 26.250 176.761 23.727 C 177.967 22.339,178.855 21.044,178.735 20.848 C 178.615 20.652,178.793 20.321,179.130 20.112 C 179.513 19.876,179.603 19.960,179.369 20.338 C 178.749 21.342,179.463 21.033,182.186 19.119 C 185.727 16.630,186.775 17.063,185.132 20.338 C 184.459 21.678,182.308 26.780,180.351 31.675 C 176.080 42.359,177.078 41.165,171.822 41.878 C 168.225 42.365,162.520 44.494,164.791 44.501 C 165.151 44.502,165.386 44.692,165.314 44.924 C 165.161 45.420,168.102 48.262,168.549 48.050 C 170.762 47.001,173.918 45.995,174.179 46.256 C 174.664 46.740,173.332 50.868,172.798 50.538 C 172.551 50.385,172.467 50.710,172.610 51.260 C 172.765 51.853,172.426 52.705,171.776 53.355 C 171.174 53.957,170.737 54.627,170.805 54.843 C 171.015 55.505,169.538 58.639,169.016 58.639 C 168.746 58.639,168.657 58.853,168.819 59.115 C 169.235 59.788,168.572 61.310,168.014 60.965 C 167.759 60.807,167.692 61.044,167.863 61.491 C 168.035 61.939,167.901 62.304,167.564 62.304 C 167.229 62.304,167.065 62.483,167.201 62.703 C 167.336 62.922,167.113 63.688,166.704 64.404 L 165.960 65.707 166.248 64.136 C 166.432 63.126,165.791 63.988,164.449 66.551 C 162.313 70.633,162.101 72.701,163.805 72.849 C 164.715 72.929,167.053 72.915,167.615 72.828 C 167.801 72.799,167.767 71.952,167.540 70.946 C 167.313 69.940,167.321 69.237,167.558 69.383 C 168.143 69.745,168.746 67.698,168.278 66.939 C 168.043 66.560,168.129 66.471,168.505 66.704 C 168.838 66.909,169.139 66.828,169.175 66.523 C 169.211 66.218,169.281 65.674,169.330 65.314 C 169.379 64.954,169.695 64.716,170.031 64.784 C 170.369 64.853,170.513 64.571,170.354 64.156 C 170.195 63.741,171.358 60.505,172.938 56.963 C 174.518 53.421,176.324 49.311,176.952 47.828 C 177.719 46.017,178.467 45.046,179.230 44.869 C 181.747 44.286,197.419 39.611,201.809 38.134 C 212.425 34.561,219.416 29.620,222.059 23.822 C 224.666 18.103,222.002 10.072,217.191 9.146 C 216.578 9.028,215.331 8.685,214.418 8.384 C 212.466 7.739,202.067 7.905,202.479 8.573 C 202.634 8.826,201.920 8.934,200.894 8.814 C 199.867 8.694,199.145 8.787,199.289 9.021 C 199.434 9.255,198.880 9.395,198.059 9.333 C 197.239 9.270,196.279 9.397,195.927 9.614 C 195.477 9.893,195.288 9.536,195.288 8.408 C 195.288 7.507,195.002 6.781,194.634 6.748 C 194.274 6.716,193.213 6.601,192.277 6.492 C 191.189 6.366,190.553 6.529,190.512 6.944 M146.597 7.592 C 145.877 8.003,145.524 8.340,145.812 8.340 C 146.099 8.340,146.924 8.003,147.644 7.592 C 148.364 7.180,148.717 6.843,148.429 6.843 C 148.141 6.843,147.317 7.180,146.597 7.592 M216.230 11.491 C 222.725 14.715,221.474 23.030,213.613 28.890 C 211.741 30.285,209.808 31.807,209.318 32.271 C 208.828 32.735,208.050 32.971,207.589 32.794 C 207.037 32.582,206.879 32.679,207.127 33.079 C 207.379 33.488,207.209 33.573,206.603 33.341 C 206.109 33.151,205.833 33.205,205.991 33.459 C 206.359 34.054,204.793 34.667,204.060 34.214 C 203.708 33.996,203.659 34.122,203.928 34.557 C 204.244 35.068,204.064 35.168,203.223 34.948 C 202.601 34.786,202.209 34.841,202.352 35.072 C 202.695 35.627,200.114 36.258,199.371 35.799 C 198.994 35.566,198.941 35.683,199.220 36.134 C 199.535 36.644,199.407 36.734,198.735 36.477 C 197.530 36.014,195.206 36.617,195.619 37.285 C 195.819 37.609,195.518 37.674,194.830 37.455 C 194.184 37.250,193.717 37.330,193.717 37.645 C 193.717 37.943,193.325 38.037,192.846 37.853 C 192.230 37.616,192.095 37.712,192.384 38.181 C 192.672 38.646,192.502 38.778,191.816 38.624 C 191.278 38.504,190.155 38.740,189.321 39.151 C 187.963 39.819,180.105 40.697,180.105 40.180 C 180.105 40.065,180.694 38.522,181.414 36.750 C 182.134 34.978,182.723 33.155,182.723 32.699 C 182.723 31.341,184.902 26.692,185.396 26.998 C 185.647 27.153,185.721 26.939,185.561 26.523 C 185.226 25.650,188.727 18.422,189.990 17.377 C 190.456 16.992,190.546 16.824,190.189 17.004 C 189.770 17.216,189.646 17.057,189.840 16.552 C 190.004 16.124,190.429 15.884,190.783 16.020 C 191.137 16.156,191.748 15.666,192.141 14.932 C 192.982 13.361,197.886 11.639,202.880 11.162 C 204.607 10.997,206.139 10.750,206.283 10.613 C 206.790 10.130,214.938 10.849,216.230 11.491 M328.623 19.389 C 327.808 21.113,326.927 22.390,326.665 22.229 C 326.404 22.067,326.345 22.339,326.535 22.834 C 326.794 23.509,326.695 23.625,326.136 23.300 C 325.727 23.063,325.555 23.049,325.753 23.270 C 325.951 23.490,324.473 26.943,322.468 30.944 C 320.463 34.944,318.157 40.043,317.343 42.276 C 313.742 52.160,312.927 54.207,312.483 54.491 C 310.165 55.973,309.975 61.200,312.195 62.383 C 313.224 62.931,313.275 62.907,312.663 62.164 C 312.080 61.458,312.130 61.246,312.983 60.790 C 313.678 60.418,314.193 59.226,314.639 56.957 C 316.269 48.656,327.682 23.206,330.105 22.468 C 331.389 22.077,333.350 18.544,332.923 17.390 C 332.073 15.090,330.257 15.934,328.623 19.389 M338.942 16.652 C 339.085 16.884,337.918 19.416,336.349 22.280 C 332.234 29.788,327.819 38.999,326.451 42.932 C 324.210 49.377,322.496 53.602,321.792 54.418 C 318.987 57.671,319.410 63.674,322.259 61.034 C 322.975 60.370,323.560 59.572,323.560 59.259 C 323.560 57.155,324.775 53.340,325.238 53.990 C 325.629 54.538,325.677 54.478,325.437 53.741 C 325.027 52.480,327.975 44.356,332.495 34.293 C 333.142 32.853,333.730 31.389,333.802 31.040 C 333.874 30.690,334.399 29.748,334.968 28.946 C 335.536 28.143,336.560 26.491,337.242 25.273 C 337.924 24.055,338.717 23.017,339.005 22.965 C 341.019 22.607,343.201 17.170,341.580 16.548 C 340.384 16.089,338.637 16.158,338.942 16.652 M314.005 34.612 C 313.213 35.740,312.565 36.888,312.565 37.163 C 312.565 37.438,312.212 37.528,311.780 37.362 C 310.406 36.835,310.936 37.639,312.493 38.444 C 313.978 39.212,314.000 39.201,314.980 37.171 C 315.524 36.045,316.403 35.054,316.934 34.970 C 317.813 34.830,317.790 34.717,316.672 33.689 L 315.445 32.561 314.005 34.612 M342.932 32.924 C 342.932 33.279,342.660 33.402,342.327 33.196 C 341.969 32.975,341.865 33.051,342.070 33.385 C 342.262 33.694,341.588 34.827,340.574 35.902 C 339.560 36.977,338.792 37.907,338.868 37.968 C 339.380 38.378,341.471 39.320,341.558 39.179 C 341.617 39.083,342.116 38.132,342.667 37.064 C 343.218 35.997,344.114 35.054,344.658 34.970 C 345.554 34.831,345.520 34.697,344.290 33.547 C 343.543 32.849,342.932 32.569,342.932 32.924 M347.705 38.351 C 347.902 39.559,346.625 41.964,345.993 41.574 C 345.626 41.347,345.530 41.429,345.748 41.782 C 345.946 42.102,345.410 43.611,344.556 45.135 C 343.703 46.659,342.597 48.966,342.097 50.262 C 341.597 51.558,340.771 53.221,340.262 53.959 C 339.753 54.696,339.178 55.931,338.984 56.704 C 338.790 57.476,338.422 57.978,338.166 57.820 C 337.092 57.156,336.374 60.284,337.424 61.052 C 338.883 62.119,340.303 61.966,340.380 60.733 C 340.416 60.157,340.474 59.391,340.510 59.031 C 340.546 58.671,341.106 58.302,341.754 58.210 C 342.845 58.055,343.294 56.939,342.950 55.236 C 342.892 54.948,343.013 54.881,343.220 55.087 C 343.426 55.293,344.272 54.528,345.099 53.386 C 345.926 52.243,346.749 51.309,346.926 51.309 C 347.103 51.309,346.925 51.721,346.530 52.225 C 345.880 53.054,345.898 53.074,346.722 52.428 C 347.223 52.035,347.512 51.519,347.365 51.281 C 347.068 50.800,353.253 43.979,353.987 43.979 C 354.711 43.979,354.536 45.187,353.506 47.304 C 352.987 48.372,352.378 49.062,352.153 48.838 C 351.929 48.613,351.802 48.665,351.872 48.953 C 352.034 49.621,351.266 51.474,350.658 51.885 C 350.402 52.058,350.126 52.529,350.046 52.932 C 349.965 53.335,349.610 54.372,349.257 55.236 C 348.248 57.705,348.010 59.527,348.647 59.920 C 348.969 60.119,349.097 60.500,348.932 60.767 C 348.767 61.034,349.202 61.512,349.898 61.829 C 351.275 62.456,354.770 61.151,354.197 60.223 C 354.039 59.968,354.185 59.588,354.523 59.379 C 354.928 59.129,354.995 59.229,354.720 59.673 C 354.443 60.121,354.547 60.265,355.032 60.105 C 355.432 59.973,356.050 59.295,356.404 58.597 C 357.348 56.743,354.261 55.311,353.049 57.041 C 352.635 57.632,351.931 58.115,351.484 58.115 C 350.185 58.115,351.016 55.852,354.545 49.777 C 358.087 43.680,358.873 40.757,357.211 39.867 C 356.143 39.295,354.512 40.062,352.972 41.861 C 352.393 42.537,352.342 42.541,352.663 41.885 C 352.889 41.423,352.851 41.279,352.571 41.536 C 352.309 41.776,352.094 42.175,352.094 42.422 C 352.094 42.670,350.464 44.455,348.472 46.389 C 346.480 48.323,345.007 49.496,345.200 48.994 C 345.392 48.492,345.550 47.734,345.550 47.308 C 345.550 46.857,345.801 46.691,346.154 46.909 C 346.521 47.135,346.617 47.053,346.398 46.698 C 346.032 46.106,348.868 41.713,349.323 42.167 C 349.459 42.303,349.987 41.954,350.496 41.392 C 351.388 40.406,351.369 40.320,349.980 39.033 C 348.414 37.581,347.536 37.318,347.705 38.351 M368.738 39.921 C 367.821 40.569,366.814 41.660,366.500 42.345 C 366.186 43.030,365.783 43.445,365.604 43.266 C 365.193 42.854,363.874 43.922,363.874 44.667 C 363.874 44.975,364.220 44.769,364.643 44.210 C 365.066 43.651,365.419 43.366,365.428 43.576 C 365.438 43.786,364.505 45.200,363.355 46.717 C 357.454 54.509,356.487 60.733,361.179 60.733 C 362.027 60.733,366.010 57.284,365.617 56.891 C 365.473 56.747,365.867 56.356,366.492 56.021 C 367.117 55.686,367.720 55.504,367.832 55.616 C 368.296 56.080,358.792 77.336,357.484 78.757 C 356.974 79.312,356.437 80.141,356.292 80.600 C 355.792 82.175,350.741 84.208,349.619 83.286 C 346.275 80.538,345.470 80.059,344.642 80.322 C 343.474 80.693,342.178 82.711,342.758 83.254 C 343.878 84.304,347.517 85.864,348.845 85.864 C 349.697 85.864,350.187 86.086,350.000 86.387 C 349.818 86.682,350.206 86.895,350.885 86.874 C 352.358 86.829,354.576 85.961,353.403 85.889 C 352.971 85.862,353.394 85.458,354.342 84.990 C 357.985 83.195,362.539 76.049,365.707 67.160 C 366.345 65.368,367.019 64.052,367.204 64.237 C 367.388 64.421,367.539 64.109,367.539 63.543 C 367.539 62.976,367.734 62.289,367.973 62.016 C 368.211 61.742,369.186 59.692,370.138 57.461 C 371.090 55.229,372.046 53.403,372.261 53.403 C 372.598 53.403,373.274 51.879,375.164 46.859 C 375.380 46.283,375.498 45.458,375.425 45.026 C 375.143 43.351,371.728 42.838,371.728 44.471 C 371.728 45.064,371.511 45.550,371.246 45.550 C 370.981 45.550,370.609 46.254,370.420 47.114 C 370.231 47.975,369.862 48.812,369.599 48.974 C 369.337 49.136,369.275 48.845,369.461 48.326 C 369.826 47.311,369.747 47.364,368.569 48.922 C 368.089 49.558,368.046 49.792,368.455 49.546 C 370.083 48.568,368.795 50.443,365.229 54.242 C 362.369 57.289,361.191 58.225,360.752 57.800 C 360.092 57.162,361.492 52.880,362.361 52.880 C 362.617 52.880,362.827 52.537,362.827 52.117 C 362.827 51.698,363.370 50.556,364.033 49.578 C 365.396 47.571,368.934 43.327,368.316 44.443 C 368.094 44.842,368.662 44.615,369.577 43.938 C 373.137 41.306,372.319 37.390,368.738 39.921 M309.204 41.644 C 309.020 42.376,308.666 42.849,308.416 42.695 C 308.167 42.540,307.823 42.779,307.652 43.224 C 307.447 43.761,307.551 43.904,307.962 43.650 C 308.304 43.439,308.107 43.957,307.526 44.801 C 303.207 51.069,300.496 59.489,302.356 60.856 C 303.262 61.522,305.779 61.289,306.078 60.512 C 306.521 59.356,305.246 57.259,304.656 58.175 C 304.355 58.643,304.274 58.196,304.429 56.920 C 304.651 55.087,307.138 48.764,307.872 48.168 C 308.050 48.024,308.825 46.968,309.595 45.821 C 310.365 44.674,310.995 43.945,310.995 44.200 C 310.995 44.456,311.450 44.253,312.007 43.749 C 313.225 42.646,312.960 41.709,311.203 40.909 C 309.507 40.136,309.590 40.105,309.204 41.644 M337.173 41.057 C 337.173 41.448,336.347 42.967,335.338 44.434 C 331.179 50.480,328.078 58.967,329.430 60.602 C 330.806 62.266,334.501 61.017,333.536 59.214 C 333.204 58.594,332.744 58.202,332.514 58.344 C 330.708 59.460,333.801 50.007,335.984 47.737 C 336.350 47.357,336.649 46.732,336.649 46.349 C 336.649 45.966,337.474 45.167,338.482 44.572 C 340.987 43.094,340.842 41.655,338.089 40.674 C 337.506 40.466,337.173 40.605,337.173 41.057 M181.414 41.361 C 179.973 41.981,179.460 41.981,179.843 41.361 C 180.021 41.073,180.683 40.854,181.314 40.874 C 182.420 40.910,182.423 40.927,181.414 41.361 M173.822 42.932 C 173.102 43.162,171.688 43.341,170.681 43.329 L 168.848 43.307 170.942 42.932 C 173.951 42.393,175.504 42.393,173.822 42.932 M36.649 45.681 L 36.649 48.429 39.267 48.429 L 41.885 48.429 41.885 45.681 L 41.885 42.932 39.267 42.932 L 36.649 42.932 36.649 45.681 M43.455 45.681 L 43.455 48.429 46.073 48.429 L 48.691 48.429 48.691 45.681 L 48.691 42.932 46.073 42.932 L 43.455 42.932 43.455 45.681 M185.602 43.737 C 183.537 44.451,183.534 44.457,185.340 44.152 C 187.476 43.792,189.660 42.995,188.482 43.005 C 188.050 43.009,186.754 43.338,185.602 43.737 M36.649 52.356 L 36.649 54.974 39.267 54.974 L 41.885 54.974 41.885 52.356 L 41.885 49.738 39.267 49.738 L 36.649 49.738 36.649 52.356 M43.455 52.356 L 43.455 54.974 46.073 54.974 L 48.691 54.974 48.691 52.356 L 48.691 49.738 46.073 49.738 L 43.455 49.738 43.455 52.356 M32.825 70.681 C 35.072 72.120,36.653 73.298,36.338 73.298 C 35.786 73.298,29.579 69.496,28.560 68.533 C 27.379 67.417,29.026 68.246,32.825 70.681 M122.775 69.634 C 122.115 69.917,122.018 70.083,122.513 70.083 C 122.945 70.083,123.770 69.881,124.346 69.634 C 125.006 69.350,125.102 69.184,124.607 69.184 C 124.175 69.184,123.351 69.386,122.775 69.634 " stroke="none" fill="#4f46e5" fill-rule="evenodd"></path></g></svg>